<svg xmlns="http://www.w3.org/2000/svg" xmlns:xlink="http://www.w3.org/1999/xlink" width="1080" zoomAndPan="magnify" viewBox="0 0 810 809.999993" height="1080" preserveAspectRatio="xMidYMid meet" version="1.0"><defs><g/></defs><g fill="#fdffff" fill-opacity="1"><g transform="translate(137.744305, 470.785143)"><g><path d="M 40.34375 2.28125 C 31.34375 2.28125 23.066406 0.601562 15.515625 -2.75 C 7.960938 -6.113281 1.773438 -10.90625 -3.046875 -17.125 L 14.078125 -37.6875 C 21.316406 -27.914062 29.566406 -23.03125 38.828125 -23.03125 C 51.390625 -23.03125 57.671875 -30.390625 57.671875 -45.109375 L 57.671875 -108.484375 L 10.84375 -108.484375 L 10.84375 -133.234375 L 88.3125 -133.234375 L 88.3125 -46.828125 C 88.3125 -30.453125 84.25 -18.171875 76.125 -9.984375 C 68.007812 -1.804688 56.082031 2.28125 40.34375 2.28125 Z M 40.34375 2.28125 "/></g></g></g><g fill="#fdffff" fill-opacity="1"><g transform="translate(240.708904, 470.785143)"><g><path d="M 103.53125 -28.546875 L 41.6875 -28.546875 L 29.875 0 L -1.71875 0 L 57.671875 -133.234375 L 88.125 -133.234375 L 147.6875 0 L 115.34375 0 Z M 93.828125 -51.953125 L 72.703125 -102.96875 L 51.578125 -51.953125 Z M 93.828125 -51.953125 "/></g></g></g><g fill="#fdffff" fill-opacity="1"><g transform="translate(386.496089, 470.785143)"><g><path d="M 100.6875 0 L 74.984375 -37.109375 L 46.625 -37.109375 L 46.625 0 L 15.796875 0 L 15.796875 -133.234375 L 73.46875 -133.234375 C 85.269531 -133.234375 95.515625 -131.265625 104.203125 -127.328125 C 112.890625 -123.390625 119.582031 -117.804688 124.28125 -110.578125 C 128.976562 -103.347656 131.328125 -94.785156 131.328125 -84.890625 C 131.328125 -74.992188 128.945312 -66.457031 124.1875 -59.28125 C 119.425781 -52.113281 112.671875 -46.628906 103.921875 -42.828125 L 133.796875 0 Z M 100.109375 -84.890625 C 100.109375 -92.367188 97.695312 -98.109375 92.875 -102.109375 C 88.050781 -106.109375 81.007812 -108.109375 71.75 -108.109375 L 46.625 -108.109375 L 46.625 -61.671875 L 71.75 -61.671875 C 81.007812 -61.671875 88.050781 -63.695312 92.875 -67.75 C 97.695312 -71.8125 100.109375 -77.523438 100.109375 -84.890625 Z M 100.109375 -84.890625 "/></g></g></g><g fill="#fdffff" fill-opacity="1"><g transform="translate(526.383301, 470.785143)"><g><path d="M 103.53125 -28.546875 L 41.6875 -28.546875 L 29.875 0 L -1.71875 0 L 57.671875 -133.234375 L 88.125 -133.234375 L 147.6875 0 L 115.34375 0 Z M 93.828125 -51.953125 L 72.703125 -102.96875 L 51.578125 -51.953125 Z M 93.828125 -51.953125 "/></g></g></g></svg>